<svg xmlns="http://www.w3.org/2000/svg" xmlns:xlink="http://www.w3.org/1999/xlink" width="1080" zoomAndPan="magnify" viewBox="0 0 810 809.999993" height="1080" preserveAspectRatio="xMidYMid meet" version="1.0"><defs><g/></defs><g fill="#39ff14" fill-opacity="1"><g transform="translate(0.0000035, 172.643327)"><g><path d="M 46.296875 -106.84375 C 51.972656 -106.84375 57.523438 -106.015625 62.953125 -104.359375 C 68.378906 -102.703125 72.410156 -101.066406 75.046875 -99.453125 L 78.859375 -96.921875 L 69.1875 -77.84375 C 68.425781 -78.351562 67.363281 -79.007812 66 -79.8125 C 64.644531 -80.613281 62.101562 -81.691406 58.375 -83.046875 C 54.644531 -84.410156 51.171875 -85.09375 47.953125 -85.09375 C 43.960938 -85.09375 40.882812 -84.242188 38.71875 -82.546875 C 36.5625 -80.847656 35.484375 -78.554688 35.484375 -75.671875 C 35.484375 -74.234375 35.988281 -72.898438 37 -71.671875 C 38.019531 -70.441406 39.757812 -69.125 42.21875 -67.71875 C 44.6875 -66.320312 46.851562 -65.195312 48.71875 -64.34375 C 50.582031 -63.5 53.460938 -62.234375 57.359375 -60.546875 C 64.140625 -57.660156 69.925781 -53.734375 74.71875 -48.765625 C 79.507812 -43.804688 81.90625 -38.191406 81.90625 -31.921875 C 81.90625 -25.898438 80.820312 -20.640625 78.65625 -16.140625 C 76.5 -11.648438 73.535156 -8.132812 69.765625 -5.59375 C 65.992188 -3.050781 61.816406 -1.164062 57.234375 0.0625 C 52.648438 1.289062 47.691406 1.90625 42.359375 1.90625 C 37.773438 1.90625 33.273438 1.4375 28.859375 0.5 C 24.453125 -0.425781 20.765625 -1.585938 17.796875 -2.984375 C 14.835938 -4.390625 12.171875 -5.769531 9.796875 -7.125 C 7.421875 -8.476562 5.679688 -9.625 4.578125 -10.5625 L 2.921875 -11.953125 L 14.875 -32.046875 C 15.894531 -31.203125 17.296875 -30.125 19.078125 -28.8125 C 20.859375 -27.5 24.015625 -25.738281 28.546875 -23.53125 C 33.085938 -21.320312 37.097656 -20.21875 40.578125 -20.21875 C 50.660156 -20.21875 55.703125 -23.65625 55.703125 -30.53125 C 55.703125 -31.96875 55.34375 -33.300781 54.625 -34.53125 C 53.90625 -35.757812 52.632812 -36.988281 50.8125 -38.21875 C 48.988281 -39.445312 47.375 -40.421875 45.96875 -41.140625 C 44.570312 -41.859375 42.285156 -42.957031 39.109375 -44.4375 C 35.929688 -45.925781 33.578125 -47.054688 32.046875 -47.828125 C 25.691406 -50.960938 20.773438 -54.878906 17.296875 -59.578125 C 13.816406 -64.285156 12.078125 -69.351562 12.078125 -74.78125 C 12.078125 -84.195312 15.550781 -91.894531 22.5 -97.875 C 29.457031 -103.851562 37.390625 -106.84375 46.296875 -106.84375 Z M 46.296875 -106.84375 "/></g></g></g><g fill="#39ff14" fill-opacity="1"><g transform="translate(85.468204, 172.643327)"><g><path d="M 67.65625 -104.921875 L 67.65625 -83.9375 L 31.546875 -83.9375 L 31.546875 -63.078125 L 66.140625 -63.078125 L 66.140625 -42.09375 L 31.546875 -42.09375 L 31.546875 -20.984375 L 67.65625 -20.984375 L 67.65625 0 L 7.625 0 L 7.625 -104.921875 Z M 67.65625 -104.921875 "/></g></g></g><g fill="#39ff14" fill-opacity="1"><g transform="translate(159.2354, 172.643327)"><g><path d="M 103.15625 0 L 70.203125 0 L 31.546875 -44.515625 L 31.546875 0 L 7.625 0 L 7.625 -104.921875 L 31.546875 -104.921875 L 31.546875 -62.0625 L 67.53125 -104.921875 L 96.53125 -104.921875 L 54.3125 -55.203125 Z M 103.15625 0 "/></g></g></g><g fill="#39ff14" fill-opacity="1"><g transform="translate(259.32985, 172.643327)"><g><path d="M 2.921875 -52.53125 C 2.921875 -67.707031 8.09375 -80.550781 18.4375 -91.0625 C 28.78125 -101.582031 41.242188 -106.84375 55.828125 -106.84375 C 70.503906 -106.84375 82.972656 -101.601562 93.234375 -91.125 C 103.492188 -80.65625 108.625 -67.789062 108.625 -52.53125 C 108.625 -37.175781 103.578125 -24.265625 93.484375 -13.796875 C 83.390625 -3.328125 70.835938 1.90625 55.828125 1.90625 C 40.484375 1.90625 27.828125 -3.285156 17.859375 -13.671875 C 7.898438 -24.054688 2.921875 -37.007812 2.921875 -52.53125 Z M 28.75 -52.53125 C 28.75 -47.019531 29.59375 -41.992188 31.28125 -37.453125 C 32.976562 -32.921875 35.945312 -29.082031 40.1875 -25.9375 C 44.425781 -22.800781 49.640625 -21.234375 55.828125 -21.234375 C 64.734375 -21.234375 71.453125 -24.285156 75.984375 -30.390625 C 80.523438 -36.503906 82.796875 -43.882812 82.796875 -52.53125 C 82.796875 -61.09375 80.484375 -68.445312 75.859375 -74.59375 C 71.242188 -80.738281 64.566406 -83.8125 55.828125 -83.8125 C 47.179688 -83.8125 40.503906 -80.738281 35.796875 -74.59375 C 31.097656 -68.445312 28.75 -61.09375 28.75 -52.53125 Z M 28.75 -52.53125 "/></g></g></g><g fill="#39ff14" fill-opacity="1"><g transform="translate(370.870961, 172.643327)"><g><path d="M 31.546875 -104.921875 L 31.546875 -20.984375 L 67.65625 -20.984375 L 67.65625 0 L 7.625 0 L 7.625 -104.921875 Z M 31.546875 -104.921875 "/></g></g></g><g fill="#39ff14" fill-opacity="1"><g transform="translate(442.730409, 172.643327)"><g><path d="M 60.921875 -104.921875 L 103.28125 0 L 77.578125 0 L 69.828125 -20.984375 L 29.890625 -20.984375 L 22.125 0 L -3.5625 0 L 38.796875 -104.921875 Z M 61.6875 -41.96875 L 49.984375 -72.5 L 49.734375 -72.5 L 38.03125 -41.96875 Z M 61.6875 -41.96875 "/></g></g></g><g fill="#39ff14" fill-opacity="1"><g transform="translate(542.443309, 172.643327)"><g><path d="M 31.546875 -42.09375 L 31.546875 0 L 7.625 0 L 7.625 -104.921875 L 31.546875 -104.921875 L 31.546875 -63.078125 L 65.375 -63.078125 L 65.375 -104.921875 L 89.28125 -104.921875 L 89.28125 0 L 65.375 0 L 65.375 -42.09375 Z M 31.546875 -42.09375 "/></g></g></g><g fill="#39ff14" fill-opacity="1"><g transform="translate(0.0000035, 349.968163)"><g><path d="M 31.546875 -104.921875 L 31.546875 -20.984375 L 67.65625 -20.984375 L 67.65625 0 L 7.625 0 L 7.625 -104.921875 Z M 31.546875 -104.921875 "/></g></g></g><g fill="#39ff14" fill-opacity="1"><g transform="translate(71.859433, 349.968163)"><g><path d="M 88.265625 -104.921875 L 88.265625 -37.265625 C 88.265625 -24.378906 84.785156 -14.628906 77.828125 -8.015625 C 70.878906 -1.398438 60.707031 1.90625 47.3125 1.90625 C 33.914062 1.90625 23.738281 -1.398438 16.78125 -8.015625 C 9.832031 -14.628906 6.359375 -24.378906 6.359375 -37.265625 L 6.359375 -104.921875 L 30.265625 -104.921875 L 30.265625 -44.265625 C 30.265625 -35.785156 31.597656 -29.890625 34.265625 -26.578125 C 36.941406 -23.273438 41.289062 -21.625 47.3125 -21.625 C 53.332031 -21.625 57.675781 -23.273438 60.34375 -26.578125 C 63.019531 -29.890625 64.359375 -35.785156 64.359375 -44.265625 L 64.359375 -104.921875 Z M 88.265625 -104.921875 "/></g></g></g><g fill="#39ff14" fill-opacity="1"><g transform="translate(166.48494, 349.968163)"><g><path d="M 60.921875 -104.921875 L 103.28125 0 L 77.578125 0 L 69.828125 -20.984375 L 29.890625 -20.984375 L 22.125 0 L -3.5625 0 L 38.796875 -104.921875 Z M 61.6875 -41.96875 L 49.984375 -72.5 L 49.734375 -72.5 L 38.03125 -41.96875 Z M 61.6875 -41.96875 "/></g></g></g><g fill="#39ff14" fill-opacity="1"><g transform="translate(266.19784, 349.968163)"><g><path d="M 7.625 -104.921875 L 45.15625 -104.921875 C 55.238281 -104.921875 63.457031 -102.226562 69.8125 -96.84375 C 76.175781 -91.46875 79.359375 -83.773438 79.359375 -73.765625 C 79.359375 -66.046875 77.429688 -59.578125 73.578125 -54.359375 C 69.722656 -49.148438 64.488281 -45.488281 57.875 -43.375 L 93.984375 0 L 63.59375 0 L 31.546875 -41.46875 L 31.546875 0 L 7.625 0 Z M 31.546875 -58.375 L 34.34375 -58.375 C 36.539062 -58.375 38.398438 -58.414062 39.921875 -58.5 C 41.453125 -58.59375 43.191406 -58.890625 45.140625 -59.390625 C 47.097656 -59.898438 48.671875 -60.617188 49.859375 -61.546875 C 51.046875 -62.484375 52.0625 -63.84375 52.90625 -65.625 C 53.757812 -67.40625 54.1875 -69.566406 54.1875 -72.109375 C 54.1875 -74.660156 53.757812 -76.820312 52.90625 -78.59375 C 52.0625 -80.375 51.046875 -81.734375 49.859375 -82.671875 C 48.671875 -83.609375 47.097656 -84.328125 45.140625 -84.828125 C 43.191406 -85.335938 41.453125 -85.632812 39.921875 -85.71875 C 38.398438 -85.800781 36.539062 -85.84375 34.34375 -85.84375 L 31.546875 -85.84375 Z M 31.546875 -58.375 "/></g></g></g><g fill="#39ff14" fill-opacity="1"><g transform="translate(357.262173, 349.968163)"><g/></g></g><g fill="#39ff14" fill-opacity="1"><g transform="translate(391.983634, 349.968163)"><g><path d="M 7.625 -104.921875 L 40.1875 -104.921875 C 50.019531 -104.921875 57.863281 -102.820312 63.71875 -98.625 C 69.570312 -94.4375 72.5 -87.632812 72.5 -78.21875 C 72.5 -67.707031 68.128906 -60.203125 59.390625 -55.703125 C 74.316406 -53.078125 81.78125 -44.257812 81.78125 -29.25 C 81.78125 -20.4375 78.726562 -13.359375 72.625 -8.015625 C 66.519531 -2.671875 58.125 0 47.4375 0 L 7.625 0 Z M 31.546875 -63.84375 L 33.453125 -63.84375 C 38.796875 -63.84375 42.78125 -64.773438 45.40625 -66.640625 C 48.03125 -68.503906 49.34375 -71.554688 49.34375 -75.796875 C 49.34375 -82.921875 44.046875 -86.484375 33.453125 -86.484375 L 31.546875 -86.484375 Z M 31.546875 -18.4375 L 39.046875 -18.4375 C 50.742188 -18.4375 56.59375 -22.335938 56.59375 -30.140625 C 56.59375 -34.804688 55.128906 -38.15625 52.203125 -40.1875 C 49.285156 -42.226562 44.898438 -43.25 39.046875 -43.25 L 31.546875 -43.25 Z M 31.546875 -18.4375 "/></g></g></g><g fill="#39ff14" fill-opacity="1"><g transform="translate(476.688735, 349.968163)"><g><path d="M 31.546875 -104.921875 L 31.546875 0 L 7.625 0 L 7.625 -104.921875 Z M 31.546875 -104.921875 "/></g></g></g><g fill="#39ff14" fill-opacity="1"><g transform="translate(515.861678, 349.968163)"><g><path d="M 60.921875 -104.921875 L 103.28125 0 L 77.578125 0 L 69.828125 -20.984375 L 29.890625 -20.984375 L 22.125 0 L -3.5625 0 L 38.796875 -104.921875 Z M 61.6875 -41.96875 L 49.984375 -72.5 L 49.734375 -72.5 L 38.03125 -41.96875 Z M 61.6875 -41.96875 "/></g></g></g><g fill="#39ff14" fill-opacity="1"><g transform="translate(615.574578, 349.968163)"><g><path d="M 46.296875 -106.84375 C 51.972656 -106.84375 57.523438 -106.015625 62.953125 -104.359375 C 68.378906 -102.703125 72.410156 -101.066406 75.046875 -99.453125 L 78.859375 -96.921875 L 69.1875 -77.84375 C 68.425781 -78.351562 67.363281 -79.007812 66 -79.8125 C 64.644531 -80.613281 62.101562 -81.691406 58.375 -83.046875 C 54.644531 -84.410156 51.171875 -85.09375 47.953125 -85.09375 C 43.960938 -85.09375 40.882812 -84.242188 38.71875 -82.546875 C 36.5625 -80.847656 35.484375 -78.554688 35.484375 -75.671875 C 35.484375 -74.234375 35.988281 -72.898438 37 -71.671875 C 38.019531 -70.441406 39.757812 -69.125 42.21875 -67.71875 C 44.6875 -66.320312 46.851562 -65.195312 48.71875 -64.34375 C 50.582031 -63.5 53.460938 -62.234375 57.359375 -60.546875 C 64.140625 -57.660156 69.925781 -53.734375 74.71875 -48.765625 C 79.507812 -43.804688 81.90625 -38.191406 81.90625 -31.921875 C 81.90625 -25.898438 80.820312 -20.640625 78.65625 -16.140625 C 76.5 -11.648438 73.535156 -8.132812 69.765625 -5.59375 C 65.992188 -3.050781 61.816406 -1.164062 57.234375 0.0625 C 52.648438 1.289062 47.691406 1.90625 42.359375 1.90625 C 37.773438 1.90625 33.273438 1.4375 28.859375 0.5 C 24.453125 -0.425781 20.765625 -1.585938 17.796875 -2.984375 C 14.835938 -4.390625 12.171875 -5.769531 9.796875 -7.125 C 7.421875 -8.476562 5.679688 -9.625 4.578125 -10.5625 L 2.921875 -11.953125 L 14.875 -32.046875 C 15.894531 -31.203125 17.296875 -30.125 19.078125 -28.8125 C 20.859375 -27.5 24.015625 -25.738281 28.546875 -23.53125 C 33.085938 -21.320312 37.097656 -20.21875 40.578125 -20.21875 C 50.660156 -20.21875 55.703125 -23.65625 55.703125 -30.53125 C 55.703125 -31.96875 55.34375 -33.300781 54.625 -34.53125 C 53.90625 -35.757812 52.632812 -36.988281 50.8125 -38.21875 C 48.988281 -39.445312 47.375 -40.421875 45.96875 -41.140625 C 44.570312 -41.859375 42.285156 -42.957031 39.109375 -44.4375 C 35.929688 -45.925781 33.578125 -47.054688 32.046875 -47.828125 C 25.691406 -50.960938 20.773438 -54.878906 17.296875 -59.578125 C 13.816406 -64.285156 12.078125 -69.351562 12.078125 -74.78125 C 12.078125 -84.195312 15.550781 -91.894531 22.5 -97.875 C 29.457031 -103.851562 37.390625 -106.84375 46.296875 -106.84375 Z M 46.296875 -106.84375 "/></g></g></g><g fill="#39ff14" fill-opacity="1"><g transform="translate(701.042779, 349.968163)"><g><path d="M 60.921875 -104.921875 L 103.28125 0 L 77.578125 0 L 69.828125 -20.984375 L 29.890625 -20.984375 L 22.125 0 L -3.5625 0 L 38.796875 -104.921875 Z M 61.6875 -41.96875 L 49.984375 -72.5 L 49.734375 -72.5 L 38.03125 -41.96875 Z M 61.6875 -41.96875 "/></g></g></g><g fill="#39ff14" fill-opacity="1"><g transform="translate(0.0000035, 527.292998)"><g><path d="M 31.546875 -65.125 L 31.546875 0 L 7.625 0 L 7.625 -104.921875 L 31.546875 -104.921875 L 73.265625 -39.8125 L 73.515625 -39.8125 L 73.515625 -104.921875 L 97.421875 -104.921875 L 97.421875 0 L 73.515625 0 L 31.796875 -65.125 Z M 31.546875 -65.125 "/></g></g></g><g fill="#39ff14" fill-opacity="1"><g transform="translate(105.054675, 527.292998)"><g><path d="M 67.65625 -104.921875 L 67.65625 -83.9375 L 31.546875 -83.9375 L 31.546875 -63.078125 L 66.140625 -63.078125 L 66.140625 -42.09375 L 31.546875 -42.09375 L 31.546875 -20.984375 L 67.65625 -20.984375 L 67.65625 0 L 7.625 0 L 7.625 -104.921875 Z M 67.65625 -104.921875 "/></g></g></g><g fill="#39ff14" fill-opacity="1"><g transform="translate(178.821871, 527.292998)"><g><path d="M 102.515625 -58.765625 L 102.515625 -36 C 99.796875 -23.53125 93.859375 -14.09375 84.703125 -7.6875 C 75.546875 -1.289062 65.328125 1.90625 54.046875 1.90625 C 39.890625 1.90625 27.828125 -3.390625 17.859375 -13.984375 C 7.898438 -24.585938 2.921875 -37.394531 2.921875 -52.40625 C 2.921875 -67.664062 7.796875 -80.550781 17.546875 -91.0625 C 27.296875 -101.582031 39.460938 -106.84375 54.046875 -106.84375 C 71.097656 -106.84375 84.582031 -100.863281 94.5 -88.90625 L 78.859375 -71.734375 C 73.265625 -80.722656 65.460938 -85.21875 55.453125 -85.21875 C 48.078125 -85.21875 41.78125 -82.015625 36.5625 -75.609375 C 31.351562 -69.210938 28.75 -61.476562 28.75 -52.40625 C 28.75 -43.5 31.351562 -35.882812 36.5625 -29.5625 C 41.78125 -23.25 48.078125 -20.09375 55.453125 -20.09375 C 61.554688 -20.09375 66.875 -21.9375 71.40625 -25.625 C 75.945312 -29.3125 78.21875 -34.207031 78.21875 -40.3125 L 54.046875 -40.3125 L 54.046875 -58.765625 Z M 102.515625 -58.765625 "/></g></g></g><g fill="#39ff14" fill-opacity="1"><g transform="translate(284.258093, 527.292998)"><g><path d="M 67.65625 -104.921875 L 67.65625 -83.9375 L 31.546875 -83.9375 L 31.546875 -63.078125 L 66.140625 -63.078125 L 66.140625 -42.09375 L 31.546875 -42.09375 L 31.546875 -20.984375 L 67.65625 -20.984375 L 67.65625 0 L 7.625 0 L 7.625 -104.921875 Z M 67.65625 -104.921875 "/></g></g></g><g fill="#39ff14" fill-opacity="1"><g transform="translate(358.025271, 527.292998)"><g><path d="M 7.625 -104.921875 L 45.15625 -104.921875 C 55.238281 -104.921875 63.457031 -102.226562 69.8125 -96.84375 C 76.175781 -91.46875 79.359375 -83.773438 79.359375 -73.765625 C 79.359375 -66.046875 77.429688 -59.578125 73.578125 -54.359375 C 69.722656 -49.148438 64.488281 -45.488281 57.875 -43.375 L 93.984375 0 L 63.59375 0 L 31.546875 -41.46875 L 31.546875 0 L 7.625 0 Z M 31.546875 -58.375 L 34.34375 -58.375 C 36.539062 -58.375 38.398438 -58.414062 39.921875 -58.5 C 41.453125 -58.59375 43.191406 -58.890625 45.140625 -59.390625 C 47.097656 -59.898438 48.671875 -60.617188 49.859375 -61.546875 C 51.046875 -62.484375 52.0625 -63.84375 52.90625 -65.625 C 53.757812 -67.40625 54.1875 -69.566406 54.1875 -72.109375 C 54.1875 -74.660156 53.757812 -76.820312 52.90625 -78.59375 C 52.0625 -80.375 51.046875 -81.734375 49.859375 -82.671875 C 48.671875 -83.609375 47.097656 -84.328125 45.140625 -84.828125 C 43.191406 -85.335938 41.453125 -85.632812 39.921875 -85.71875 C 38.398438 -85.800781 36.539062 -85.84375 34.34375 -85.84375 L 31.546875 -85.84375 Z M 31.546875 -58.375 "/></g></g></g><g fill="#39ff14" fill-opacity="1"><g transform="translate(449.089584, 527.292998)"><g><path d="M 31.546875 -104.921875 L 31.546875 0 L 7.625 0 L 7.625 -104.921875 Z M 31.546875 -104.921875 "/></g></g></g><g fill="#39ff14" fill-opacity="1"><g transform="translate(0.0000035, 704.617833)"><g><path d="M 63.46875 -21.625 C 67.113281 -21.625 70.648438 -22.171875 74.078125 -23.265625 C 77.515625 -24.367188 80.039062 -25.429688 81.65625 -26.453125 L 84.078125 -28.109375 L 94.25 -7.765625 C 93.90625 -7.503906 93.4375 -7.160156 92.84375 -6.734375 C 92.25 -6.316406 90.867188 -5.535156 88.703125 -4.390625 C 86.546875 -3.242188 84.238281 -2.242188 81.78125 -1.390625 C 79.320312 -0.546875 76.097656 0.210938 72.109375 0.890625 C 68.128906 1.566406 64.019531 1.90625 59.78125 1.90625 C 50.03125 1.90625 40.785156 -0.488281 32.046875 -5.28125 C 23.316406 -10.070312 16.28125 -16.660156 10.9375 -25.046875 C 5.59375 -33.441406 2.921875 -42.519531 2.921875 -52.28125 C 2.921875 -59.65625 4.488281 -66.734375 7.625 -73.515625 C 10.769531 -80.296875 14.945312 -86.101562 20.15625 -90.9375 C 25.375 -95.769531 31.457031 -99.628906 38.40625 -102.515625 C 45.363281 -105.398438 52.488281 -106.84375 59.78125 -106.84375 C 66.5625 -106.84375 72.8125 -106.035156 78.53125 -104.421875 C 84.257812 -102.804688 88.3125 -101.195312 90.6875 -99.59375 L 94.25 -97.171875 L 84.078125 -76.828125 C 83.484375 -77.328125 82.59375 -77.9375 81.40625 -78.65625 C 80.21875 -79.382812 77.84375 -80.34375 74.28125 -81.53125 C 70.71875 -82.71875 67.113281 -83.3125 63.46875 -83.3125 C 57.695312 -83.3125 52.519531 -82.378906 47.9375 -80.515625 C 43.363281 -78.648438 39.738281 -76.1875 37.0625 -73.125 C 34.394531 -70.070312 32.363281 -66.785156 30.96875 -63.265625 C 29.570312 -59.753906 28.875 -56.175781 28.875 -52.53125 C 28.875 -44.5625 31.863281 -37.414062 37.84375 -31.09375 C 43.820312 -24.78125 52.363281 -21.625 63.46875 -21.625 Z M 63.46875 -21.625 "/></g></g></g><g fill="#39ff14" fill-opacity="1"><g transform="translate(95.770179, 704.617833)"><g><path d="M 31.546875 -104.921875 L 31.546875 0 L 7.625 0 L 7.625 -104.921875 Z M 31.546875 -104.921875 "/></g></g></g><g fill="#39ff14" fill-opacity="1"><g transform="translate(134.943104, 704.617833)"><g><path d="M 31.546875 -104.921875 L 31.546875 -20.984375 L 67.65625 -20.984375 L 67.65625 0 L 7.625 0 L 7.625 -104.921875 Z M 31.546875 -104.921875 "/></g></g></g><g fill="#39ff14" fill-opacity="1"><g transform="translate(206.802533, 704.617833)"><g><path d="M 67.65625 -104.921875 L 67.65625 -83.9375 L 31.546875 -83.9375 L 31.546875 -63.078125 L 66.140625 -63.078125 L 66.140625 -42.09375 L 31.546875 -42.09375 L 31.546875 -20.984375 L 67.65625 -20.984375 L 67.65625 0 L 7.625 0 L 7.625 -104.921875 Z M 67.65625 -104.921875 "/></g></g></g><g fill="#39ff14" fill-opacity="1"><g transform="translate(280.569729, 704.617833)"><g><path d="M 88.265625 -104.921875 L 88.265625 -37.265625 C 88.265625 -24.378906 84.785156 -14.628906 77.828125 -8.015625 C 70.878906 -1.398438 60.707031 1.90625 47.3125 1.90625 C 33.914062 1.90625 23.738281 -1.398438 16.78125 -8.015625 C 9.832031 -14.628906 6.359375 -24.378906 6.359375 -37.265625 L 6.359375 -104.921875 L 30.265625 -104.921875 L 30.265625 -44.265625 C 30.265625 -35.785156 31.597656 -29.890625 34.265625 -26.578125 C 36.941406 -23.273438 41.289062 -21.625 47.3125 -21.625 C 53.332031 -21.625 57.675781 -23.273438 60.34375 -26.578125 C 63.019531 -29.890625 64.359375 -35.785156 64.359375 -44.265625 L 64.359375 -104.921875 Z M 88.265625 -104.921875 "/></g></g></g><g fill="#39ff14" fill-opacity="1"><g transform="translate(375.195255, 704.617833)"><g><path d="M 31.546875 -65.125 L 31.546875 0 L 7.625 0 L 7.625 -104.921875 L 31.546875 -104.921875 L 73.265625 -39.8125 L 73.515625 -39.8125 L 73.515625 -104.921875 L 97.421875 -104.921875 L 97.421875 0 L 73.515625 0 L 31.796875 -65.125 Z M 31.546875 -65.125 "/></g></g></g><g fill="#39ff14" fill-opacity="1"><g transform="translate(480.249926, 704.617833)"><g><path d="M -3.8125 -104.921875 L 24.921875 -104.921875 L 46.8125 -71.359375 L 68.6875 -104.921875 L 97.421875 -104.921875 L 58.765625 -47.0625 L 58.765625 0 L 34.84375 0 L 34.84375 -47.0625 Z M -3.8125 -104.921875 "/></g></g></g><g fill="#39ff14" fill-opacity="1"><g transform="translate(573.857954, 704.617833)"><g><path d="M 31.546875 -104.921875 L 31.546875 0 L 7.625 0 L 7.625 -104.921875 Z M 31.546875 -104.921875 "/></g></g></g></svg>